<svg id="Layer_1" data-name="Layer 1" xmlns="http://www.w3.org/2000/svg" viewBox="0 0 191.9 48.38"><defs><style>.cls-1,.cls-3,.cls-45{fill:none}.cls-1,.cls-2{clip-rule:evenodd}.cls-2,.cls-20,.cls-22{fill:#00b6d3}.cls-4{fill:#231f20}.cls-5{fill:#0c5085}.cls-22,.cls-25,.cls-26,.cls-27,.cls-28,.cls-29,.cls-30,.cls-31,.cls-32,.cls-5{fill-rule:evenodd}.cls-6{clip-path:url(#clip-path)}.cls-7{fill:#5bcae9}.cls-8{fill:#08aab5}.cls-9{fill:#f47427}.cls-10{fill:#f3712a}.cls-11{fill:#f79421}.cls-12{fill:#00a8cb}.cls-13{fill:#0eacb7}.cls-14{fill:#068a9f}.cls-15{fill:#f79a21}.cls-16{fill:#ffc316}.cls-17{fill:#f58220}.cls-18{fill:#f9a11e}.cls-19{fill:#079cb2}.cls-21{fill:#0b8ea4}.cls-23{clip-path:url(#clip-path-2)}.cls-24{clip-path:url(#clip-path-3)}.cls-25{fill:#56c9ec;stroke:#56c9ec}.cls-25,.cls-26,.cls-27,.cls-28,.cls-29,.cls-30,.cls-31,.cls-32,.cls-45{stroke-miterlimit:10}.cls-25,.cls-26,.cls-27,.cls-28,.cls-29,.cls-30,.cls-31,.cls-32{stroke-width:.72px}.cls-26{fill:#2f9cd7;stroke:#2f9cd7}.cls-27{fill:#094d7c;stroke:#094d7c}.cls-28{fill:#35b0e5;stroke:#35b0e5}.cls-29{fill:#065892;stroke:#065892}.cls-30{fill:#0a5286;stroke:#0a5286}.cls-31{fill:#1373ba;stroke:#1373ba}.cls-32{fill:#42a7dd;stroke:#42a7dd}.cls-33{clip-path:url(#clip-path-4)}.cls-34{fill:#0d8da9}.cls-35{fill:#01a7b0}.cls-36{fill:#317989}.cls-37{clip-path:url(#clip-path-5)}.cls-38{clip-path:url(#clip-path-6)}.cls-39{fill:#f99f1b}.cls-40{fill:#f37028}.cls-41{clip-path:url(#clip-path-7)}.cls-42{fill:#fbb317}.cls-43{fill:#faa31f}.cls-44{fill:#f99c1f}.cls-45{stroke:#00b6d3;stroke-width:2px}</style><clipPath id="clip-path"><path class="cls-1" d="M19.11 38.66h10.68l-2.46-20.1-5.99-.02-2.23 20.12z"/></clipPath><clipPath id="clip-path-2"><path class="cls-2" d="M30.59 17.02v-1.58H18.41l-.05 1.63 12.23-.05z"/></clipPath><clipPath id="clip-path-3"><path class="cls-1" d="M19 40l-3.34 3.13h17.25l-2.78-3.16z"/></clipPath><clipPath id="clip-path-4"><path class="cls-1" d="M17.31 46.74c.52 0 1.14-.62 1.78-.61s1.14.63 1.78.63 1.12-.62 1.78-.61 1 .63 1.78.63 1.2-.62 1.78-.61 1 .63 1.78.63 1.35-.62 1.78-.61.94.62 1.78.63 3.4-2.21 3.11-2.68H14.25c-.01.65 2.54 2.6 3.06 2.6z"/></clipPath><clipPath id="clip-path-5"><path class="cls-3" transform="rotate(-45 24.45 10.693)" d="M22.02 8.26h4.86v4.86h-4.86z"/></clipPath><clipPath id="clip-path-6"><path class="cls-1" d="M46.33 29.24C44.93 36.07 36.76 44 36.76 44l-4.36-4.6s11.3-5.73 13.93-10.16z"/></clipPath><clipPath id="clip-path-7"><path class="cls-1" d="M2.53 29c1.4 6.84 9.57 14.8 9.57 14.8l4.36-4.61S5.16 33.45 2.53 29z"/></clipPath></defs><title>logo_ucwt</title><path class="cls-4" d="M69.34 15.63v1.69h-3.59v1.83h3.35v1.69h-3.35v2.06h3.69v1.75h-5.63v-9zM70.4 23h.31a.9.9 0 0 0 .75-.29 2.16 2.16 0 0 0 .28-1l.71-6.12h5.88V23h1v2.91h-1.77v-1.25h-5.35v1.28H70.4zm3.73-5.72l-.48 4.54a1.58 1.58 0 0 1-.65 1.24h3.39V17.3zm12.38 2.22l-5.1 5.18h-.58v-9h1.93v5.12l5.07-5.16h.61v9.06h-1.93zm11.32 5.16h-1.94v-3.82h-3.45v3.82h-1.92v-9h1.92v3.44h3.46v-3.47h1.93zm3.97-9.03v2.82h1.93a3 3 0 0 1 2.49 1.06 3.11 3.11 0 0 1 .7 2.44 3 3 0 0 1-1 1.93 3.13 3.13 0 0 1-2.2.77h-3.8v-9zm1.93 4.52h-1.93V23h1.61q1.53 0 1.66-1.24a1.47 1.47 0 0 0-.31-1.1 1.25 1.25 0 0 0-1.03-.5zm6.43-4.52v9h-1.92v-9zm2.09 9.05v-9h1.93v5.12l5.07-5.16h.61v9.06h-1.92v-5.2l-5.1 5.18zm2.56-10.22a2.6 2.6 0 0 0 3.27 0 2.35 2.35 0 0 0 .65-1.59q-.81-.09-1.29-.12a.91.91 0 0 1-1 .81.86.86 0 0 1-1-.81l-1.3.12a2.27 2.27 0 0 0 .67 1.59zm16.79 10.2h-6.5v-9h1.9v7.24h3.25v-7.27h1.95V23h1.08v2.8h-1.68zm8.74-9.03v1.69h-3.58v1.83h3.35v1.69h-3.35v2.06h3.69v1.75h-5.63v-9zm9.16 9.03h-1.93v-3.82h-3.46v3.82h-1.92v-9h1.92v3.44h3.46v-3.47h1.93zm3.68-7.35h-2.41v-1.68h6.68v1.68h-2.4v7.35h-1.87zm7.49 7.34h-1.93v-9h3.85a3 3 0 0 1 2.35 1 3.38 3.38 0 0 1 .86 2.32 3.19 3.19 0 0 1-.86 2.26 3 3 0 0 1-2.35.93h-1.92zm0-4.2h2a1.22 1.22 0 0 0 1-.46 1.7 1.7 0 0 0 .38-1.13 1.66 1.66 0 0 0-.37-1.1 1.23 1.23 0 0 0-1-.44h-2zM70.49 33.78a2 2 0 0 1-.24 1 1.79 1.79 0 0 1-.66.71 2 2 0 0 1 1.29 2 2.56 2.56 0 0 1-.76 1.94 2.91 2.91 0 0 1-2.1.73h-4.2v-9h3.83a2.93 2.93 0 0 1 2 .72 2.51 2.51 0 0 1 .84 1.9zm-3-1h-1.75v2h1.77a1.13 1.13 0 0 0 .78-.26.94.94 0 0 0 .3-.71 1 1 0 0 0-.28-.79 1.08 1.08 0 0 0-.8-.25zm.28 3.62h-2v2.06h2.14a1.09 1.09 0 0 0 .77-.26 1 1 0 0 0 .31-.73 1 1 0 0 0-.4-.89 1.36 1.36 0 0 0-.8-.19zm13.42-.78A4.58 4.58 0 0 1 79.9 39a4.49 4.49 0 0 1-3.34 1.3A4.6 4.6 0 0 1 73.3 39a4.45 4.45 0 0 1-1.3-3.38 4.76 4.76 0 0 1 .66-2.54 4.16 4.16 0 0 1 1.7-1.6A5 5 0 0 1 76.6 31a4.8 4.8 0 0 1 3.18 1.19 3.94 3.94 0 0 1 1 1.47 5.1 5.1 0 0 1 .41 1.96zm-7.27 0a2.88 2.88 0 0 0 .76 2.15 2.61 2.61 0 0 0 1.91.75 2.64 2.64 0 0 0 1.91-.75 2.86 2.86 0 0 0 .77-2.15 2.83 2.83 0 0 0-.77-2.12 2.77 2.77 0 0 0-3.8 0 2.83 2.83 0 0 0-.79 2.12zm7.91 2.87h.31a.9.9 0 0 0 .75-.29 2.16 2.16 0 0 0 .28-1l.71-6.12h5.88v7.39h1v2.93H89v-1.27h-5.35v1.27h-1.82zm3.73-5.72l-.48 4.54a1.58 1.58 0 0 1-.61 1.22h3.39v-5.76zm14.01 7.36h-1.94v-3.82h-3.45v3.82h-1.92v-9h1.92v3.44h3.46V31.1h1.93zm10.8-4.51a4.58 4.58 0 0 1-1.29 3.38 4.49 4.49 0 0 1-3.34 1.3 4.6 4.6 0 0 1-3.25-1.3 4.45 4.45 0 0 1-1.33-3.42 4.76 4.76 0 0 1 .66-2.54 4.16 4.16 0 0 1 1.7-1.6 5 5 0 0 1 2.26-.52 4.8 4.8 0 0 1 3.22 1.23 3.94 3.94 0 0 1 1 1.47 5.1 5.1 0 0 1 .37 2zm-7.27 0a2.88 2.88 0 0 0 .76 2.15 2.61 2.61 0 0 0 1.91.75 2.64 2.64 0 0 0 1.91-.75 2.86 2.86 0 0 0 .77-2.15 2.83 2.83 0 0 0-.77-2.12 2.77 2.77 0 0 0-3.8 0 2.83 2.83 0 0 0-.78 2.12zm14.35-2.78h-3.57v7.28H112v-9h5.49zm9.78 2.78a4.58 4.58 0 0 1-1.28 3.38 4.49 4.49 0 0 1-3.34 1.3 4.6 4.6 0 0 1-3.26-1.3 4.45 4.45 0 0 1-1.35-3.38 4.76 4.76 0 0 1 .66-2.54 4.16 4.16 0 0 1 1.7-1.6 5 5 0 0 1 2.26-.52 4.8 4.8 0 0 1 3.18 1.19 4 4 0 0 1 1 1.47 5.09 5.09 0 0 1 .43 2zm-7.27 0a2.88 2.88 0 0 0 .76 2.15 2.81 2.81 0 0 0 3.82 0 2.86 2.86 0 0 0 .77-2.15 2.83 2.83 0 0 0-.77-2.12 2.77 2.77 0 0 0-3.8 0 2.83 2.83 0 0 0-.74 2.12zm13.62-2.84h-2.41V31.1h6.68v1.68h-2.4v7.35h-1.87zm7.42 5.08l.39-.81-3.18-5.7v-.25h2.13l2.05 4h.06l1.83-4h2v.19l-3.4 6.88a7.17 7.17 0 0 1-.67 1.2 3 3 0 0 1-.81.77 1.93 1.93 0 0 1-1.11.29 4.52 4.52 0 0 1-1.46-.32l.26-1.57a1.52 1.52 0 0 0 1.11.14 1.42 1.42 0 0 0 .8-.82zm8.26 2.25h-1.93v-9h3.85a3 3 0 0 1 2.35 1 3.38 3.38 0 0 1 .86 2.32 3.19 3.19 0 0 1-.86 2.26 3 3 0 0 1-2.35.93h-1.92zm0-4.2h2a1.22 1.22 0 0 0 1-.46 1.7 1.7 0 0 0 .38-1.13 1.65 1.65 0 0 0-.37-1.1 1.23 1.23 0 0 0-1-.44h-2zm12.19-.91l-5.11 5.18h-.58v-9h1.93v5.12l5.07-5.16h.61v9.06h-1.92zm5.41-1.68h-1.7a2 2 0 0 1 .79-1.79 3.5 3.5 0 0 1 2.11-.61 3.16 3.16 0 0 1 2.18.72 2.34 2.34 0 0 1 .81 1.83 1.92 1.92 0 0 1-.28 1 2.12 2.12 0 0 1-.75.75 2.36 2.36 0 0 1 1.52 2.28 2.51 2.51 0 0 1-.92 2 3.88 3.88 0 0 1-2.56.77 3.48 3.48 0 0 1-2.37-.77 2.84 2.84 0 0 1-.88-2.26h1.74a1.33 1.33 0 0 0 .43 1 1.55 1.55 0 0 0 1.08.39 1.63 1.63 0 0 0 1.12-.37 1.2 1.2 0 0 0 .42-.95 1.16 1.16 0 0 0-.43-.92 1.64 1.64 0 0 0-1.1-.37h-.67v-1.46h.6a1.24 1.24 0 0 0 .86-.3 1 1 0 0 0 0-1.51 1.29 1.29 0 0 0-.84-.28 1.54 1.54 0 0 0-.84.23.72.72 0 0 0-.32.62zm10.59 2.05l3.62-4.29h.7v9h-1.93v-4.84l-2.27 2.84h-.25L175 35.24v4.89h-1.93v-9h.71zm11.74 3.26h-3.75l-.7 1.5h-2v-.26l4.14-8.87h.89l4.13 8.84v.26h-2zM187.32 34l-1.25 3h2.5z"/><path class="cls-5" d="M14.41 44.1s1.89 4.26 10 4.28 10.08-4.14 10.08-4.14z"/><g class="cls-6"><path class="cls-7" d="M16.12 25.14l10.57-7.27-24.94-.64 14.37 7.91z"/><path class="cls-8" d="M23.96 29.26l2.73-11.39-10.57 7.27 7.84 4.12z"/><path class="cls-9" d="M25.01 36.96l5.69 3.26-6.74-10.96 1.05 7.7z"/><path class="cls-10" d="M36.26 37.08l3.24-1.83-12.81-17.38-2.73 11.39 12.3 7.82z"/><path class="cls-11" d="M23.96 29.26l6.74 10.96 5.56-3.14-12.3-7.82zm13.15-6.67l-10.42-4.72L39.5 35.25l-2.39-12.66z"/><path class="cls-12" d="M16.12 25.14l-6.44-3.38 1.1 7.06 5.34-3.68z"/><path class="cls-13" d="M9.68 21.76l-4.73-.64 5.04 8.24.79-.54-1.1-7.06z"/><path class="cls-14" d="M3.01 20.86l1.55 5.53 5.43 2.97-5.04-8.24-1.94-.26z"/><path class="cls-15" d="M25.01 36.96l-1.05-7.7-5.4 4.01 6.45 3.69z"/><path class="cls-16" d="M26.87 17.87l10.41 4.72-1.91-10.09-3.01-5.78-5.49 11.15z"/><path class="cls-17" d="M41.68 24.59L35.37 12.5l1.91 10.09 4.4 2z"/><path class="cls-18" d="M39.68 35.25l5.95-3.08-3.95-7.58-4.4-2 2.4 12.66z"/><path class="cls-12" d="M9.99 29.36l2.16 8.67 6.41-4.76-7.78-4.45-.79.54z"/><path class="cls-19" d="M17.4 40.23l7.51-.34-13.33-2.3 5.82 2.64z"/><path class="cls-20" d="M9.42 28.93L4 25.95l7.58 11.64-2.16-8.66z"/><path class="cls-21" d="M23.96 29.26l-7.84-4.12 2.44 8.13 5.4-4.01z"/><path class="cls-20" d="M18.56 33.27l-2.44-8.13-5.34 3.68 7.78 4.45z"/><path class="cls-20" d="M12.89 38.38l14.69 2.34-9.57-8.31-5.12 5.97z"/><path class="cls-8" d="M26.09 40.09l2.48-1.15-10.01-5.67 7.53 6.82z"/></g><path class="cls-22" d="M30.59 17.02v-1.58H18.41l-.05 1.63 12.23-.05z"/><g class="cls-23"><path class="cls-22" d="M-9.1 18.11l.14 2.43 75.05-5.94-75.19 3.51z"/><path class="cls-22" d="M-14.32 14.9l5.33 3.21L66.2 14.6l-80.52.3z"/></g><g class="cls-24"><path class="cls-25" d="M25.95 48.96l23.43-.3-11.69-5.26-11.74 5.56z"/><path class="cls-26" d="M22.54 46.19l23.42-.31-3.41-6.44-20.01 6.75z"/><path class="cls-27" d="M-.89 46.49l20.82-.27-7.71-8.55-13.11 8.82z"/><path class="cls-28" d="M25.95 48.96l11.74-5.56-15.15-.88 3.41 6.44z"/><path class="cls-29" d="M19.93 46.22l2.61-.03 1.02-9.75-3.63 9.78z"/><path class="cls-30" d="M12.22 37.67l7.71 8.55 3.63-9.78-11.34 1.23z"/><path class="cls-31" d="M22.54 46.19l20.01-6.75-18.99-3-1.02 9.75z"/><path class="cls-32" d="M22.54 42.52l15.15.88 3.67-7.61-18.82 6.73z"/></g><g class="cls-33"><path class="cls-7" d="M18.78 42.92l3.44 13.12 2.79-17.39-6.23 4.27z"/><path class="cls-8" d="M11.2 48.12l11.02 7.92-3.44-13.12-7.58 5.2z"/><path class="cls-34" d="M29.13 49.41l-1.15-11.52-3.03.76 4.18 10.76z"/><path class="cls-35" d="M22.22 56.04l6.85-6.82-4.06-10.57-2.79 17.39z"/><path class="cls-12" d="M18.78 42.92l6.23-4.27-7.96-2.35 1.73 6.62z"/><path class="cls-36" d="M29.21 49.2l5.98 2.71v-8.66l-5.98 5.95z"/><path class="cls-12" d="M29.14 49.73l.04-.05 6.62-6.16v-7.46l-7.85 1.9 1.19 11.77z"/><path class="cls-21" d="M11.2 48.12l7.58-5.2-9.65-1.64 2.07 6.84z"/><path class="cls-20" d="M9.13 41.28l9.65 1.64-1.73-6.62-7.92 4.98z"/></g><g class="cls-37"><path class="cls-8" d="M25.11 10.69L14.09 2.77l3.44 13.11 7.58-5.19z"/><path class="cls-9" d="M33.75 13.4l5.8-3.64-14.44.93 8.64 2.71z"/><path class="cls-10" d="M38.47 3.19l-.63-3.83-23.75 3.41 11.02 7.92 13.36-7.5z"/><path class="cls-11" d="M25.11 10.69l14.44-.93-1.08-6.57-13.36 7.5z"/><path class="cls-15" d="M33.75 13.4l-8.64-2.71 2.07 6.84 6.57-4.13z"/><path class="cls-12" d="M19.52 23.49l10.12 2.16-2.46-8.12-7.91 4.98.25.98z"/><path class="cls-19" d="M34.83 21.59l2.7-7.01-7.89 11.07 5.19-4.06z"/><path class="cls-20" d="M19.52 23.49l-5.38 3.54 15.5-1.38-10.12-2.16z"/><path class="cls-21" d="M25.11 10.69l-7.58 5.19 9.65 1.65-2.07-6.84z"/><path class="cls-20" d="M27.18 17.53l-9.65-1.65 1.74 6.63 7.91-4.98zm2.46 8.12l7.89-11.07-10.35 2.95 2.46 8.12z"/><path class="cls-8" d="M37.53 14.58l-3.78-1.18-6.57 4.13 10.35-2.95z"/></g><path class="cls-10" d="M41.85 30.73s2 1.72 2.7 2.22c.93-.51 2.27-5.3 2.27-5.3z"/><g class="cls-38"><path class="cls-10" d="M16.78 35.96l1.01 6.17 38.28-5.5-17.76-12.76-21.53 12.09z"/><path class="cls-11" d="M41.11 48.32l14.96-11.69-38.28 5.5 23.32 6.19z"/><path class="cls-16" d="M56.07 36.63L41.11 48.32l18.59 4.95h11.9L56.07 36.63z"/><path class="cls-39" d="M56.07 36.63L71.6 53.27h5.14v-2.53l-4.17-10.87-16.5-3.24z"/><path class="cls-17" d="M34.79 53.27H59.7l-18.59-4.95-6.32 4.95z"/><path class="cls-18" d="M17.79 42.13l1.38 11.14h15.62l6.32-4.95-23.32-6.19z"/></g><path class="cls-40" d="M7.23 31l-2.7 2.22c-1.62-1.73-2.27-5.3-2.27-5.3z"/><g class="cls-41"><path class="cls-10" d="M5.74 33.47h12.01l-1.02-6.18-10.99 6.18z"/><path class="cls-15" d="M14.99 16.71L3.69 31.42l2.05 2.05 10.99-6.18-1.74-10.58z"/><path class="cls-40" d="M4.49 43.53c6.61-5 13.25-10.06 13.25-10.06h-12z"/><path class="cls-42" d="M-9.77 17.96L3.69 31.42l11.3-14.71-24.76 1.25z"/><path class="cls-17" d="M4.49 43.53l-.13 1.07h14.76l-1.37-11.13S11.1 38.55 4.49 43.53z"/><path class="cls-43" d="M5.74 33.47l-2-2L-6.43 44.6h9.49l1.43-1.07z"/><path class="cls-17" d="M3.06 44.6h1.3l.13-1.07z"/><path class="cls-44" d="M3.69 31.42L-9.77 17.96l3.34 26.64L3.69 31.42z"/></g><path class="cls-45" d="M46.9 24.66a22.24 22.24 0 0 0-44.48 0"/></svg>