<svg height="100" viewBox="0 0 100 100" width="100" xmlns="http://www.w3.org/2000/svg"><path d="M84.418 69.921c-2.527 1.583-12.807 2.054-15.295.246-1.365-.991-2.613-2.232-3.799-3.412-.828-.826-1.77-1.227-2.482-2.123-.58-.734-.979-1.599-1.592-2.321-1.033-1.215-2.625-2.248-3.885-.764-1.895 2.231.299 6.617-2.229 8.285-.848.56-1.703.722-2.762.642l-2.346.107c-1.379.027-3.562.039-5.129-.244-1.75-.315-3.193-1.271-4.773-1.973-3.002-1.331-5.863-3.145-8.039-5.658-5.922-6.843-13.877-16.255-16.967-24.859-.637-1.768-2.314-5.267-.723-6.784 2.164-1.572 12.789-2.017 14.445.416.674.987 1.098 2.436 1.574 3.555.592 1.396.914 2.713 1.84 3.949.82 1.097 1.426 2.199 2.061 3.402.713 1.349 1.385 2.643 2.252 3.886.588.845 2.143 2.524 3.125 2.65 2.398.307 2.248-5.521 2.07-6.945a27.562 27.562 0 0 1-.17-4.216c.039-1.186.146-2.857-.557-3.826-1.145-1.58-3.695-.397-3.895-2.52.422-.603.332-1.138 3.146-2.064 2.215-.729 3.646-.706 5.107-.589 2.98.239 6.139-.568 9.014.398 2.746.925 2.322 4.828 2.23 7.168-.123 3.195.008 6.312 0 9.553-.004 1.477-.062 2.912 1.736 2.793 1.688-.113 1.859-1.532 2.664-2.704 1.121-1.633 2.148-3.288 3.289-4.916 1.537-2.199 2-4.67 3.447-6.923.518-.807.963-2.568 1.76-3.205.604-.481 1.75-.275 2.48-.275h1.736c1.33.016 2.686.035 4.051.083 1.967.068 4.17-.359 6.121-.084 8.416 1.188-10.578 19.191-9.59 22.403.684 2.218 5.016 4.703 6.58 6.521 2.085 2.418 8.476 7.237 3.505 10.348z" fill="#4C75A3"/></svg>