<svg xmlns="http://www.w3.org/2000/svg" width="128" height="110" viewBox="0 0 128 110"><g fill="none" fill-rule="evenodd"><path fill="#FE8205" d="M13.989 74.093c-.9 0-1.807-.012-2.706 0-.999.012-1.654.074-1.413-1.069l1.14-4.28c.348-1.286 2.12-8.016 2.433-8.341.569.198.563.869.732 1.548l1.133 3.437c.184.624.212 1.125.43 1.73.333.933 2.06 6.302 1.925 6.963l-3.678.015.004-.003zM.024 86.229l5.794.038c.72-1.021.737-2.485 1.143-3.74l1.081-3.807c1.364-.15 10.307-.22 11.38 0 .587.767.868 2.663 1.276 3.733.409 1.07.923 2.728 1.406 3.705l1.177.014c.575-1.17 1.239-3.234 1.68-4.551.93-2.78.85-2.244-.174-4.889-.302-.782-.5-1.63-.783-2.326L16.39 53.379c-.577-1.42-1.3-3.879-1.78-4.572-3.16-.348-2.441.229-3.385 3.01-.271.797-.641 1.617-.85 2.401-.462 1.752-1.793 5.49-2.433 7.278-.49 1.367-.521 1.911-1.216 3.639-.158.398-.231.959-.379 1.398-.273.812-.596 1.594-.869 2.367-.273.774-.478 1.795-.724 2.551-.157.482-.303.607-.484 1.121l-2.846 8.626c-.28 1.318-1.618 3.888-1.4 5.031zM61.25 73.915c-.074-1.216.532-2.46.849-3.52l.916-3.417c.19-.622.396-1.013.556-1.597.36-1.306.853-4.033 1.49-5.091.642.573 1.191 3.507 1.544 4.62.267.847.47 1.474.747 2.359l1.355 4.865c.348 1.554.623 1.84-1.075 1.834-2.07-.01-4.345.093-6.381-.047v-.006zM51.173 86.167l6.061.033c.845-1.722 1.738-7.071 2.466-7.434.695-.324 7.498-.11 8.885-.108 2.504 0 2.247-.393 2.796 1.762l1.738 5.142c.422 1.095 1.206.579 1.39.347l1.236-3.366c.173-.44 1.147-3.044 1.152-3.4l-5.3-15.301c-.235-.596-.296-1.144-.534-1.766-.238-.622-.401-1.055-.648-1.646-.37-.888-.414-1.551-1.192-3.397-.706-1.675-2.228-7.397-3.074-8.341h-2.225c-.321.705-.531 1.536-.823 2.302a20.445 20.445 0 0 0-.78 2.341c-.28 1.067-2.115 5.7-2.41 7.036l-2.465 6.986c-.276.95-.457 1.498-.777 2.34-.681 1.794-.823 2.646-1.607 4.603-.607 1.515-1.639 5.069-2.433 7.015-.224.554-1.491 4.442-1.465 4.866l.009-.014z"/><path fill="#3C231D" d="M88.462 65.75c.654-.568 1.206-1.152 2.026-1.564 1.686-.847 6.47-.224 7.67 2.422.427.942.774 1.377.991 2.66.174 1.043.152 2.282.148 3.402-.015 4.281-.869 8.009-5.463 8.803-1.033.174-2.301.292-3.318-.057-.855-.294-1.944-.695-2.106-1.453-.128-.608.045-12.456.05-14.213h.002zm-5.56 7.192c.533.715-.115 1.39 1.164.975l-.098.235c-.22.365.218 0-.205.233-.326.173-.083-.55-.335.158-.116-.054-.13-.06.009.467.219.827.521.511.676.556l.825.642c-.66.373-.486.125-.695-.037l-.379-.174c-.44-.25.14-.031-.43-.375-.155.881.029 1.072.211 1.786 0 .025.016.065.02.089.003.024.01.064.011.087.03.297-.184.509-.205.8v.124c0 .047.033.437.033.445-.4-.146-.281-.052-.385-.314 0-.014 0-.063.048-.047-.088.333.223 1.216.226 1.24l-.064.273c-.174.5-.188.711.068 1.074-.503.31-.174.216-.3.946.256.06.114-.263.418-.136l-.144.653a.348.348 0 0 0 0 .096c.026 0 .055-.062.062-.042.174.58.025-.104.22-.146a.412.412 0 0 1 .055-.01c.283.014.38.327.436.666 0 .019.009.06.012.08l-.031.38c-.01.03-.026.063-.038.096-.082.163-.155.33-.218.502.035-.028.089-.113.108-.08l.362-.236.076-.05.365-.282c-.271.695-.054.74-.532 1.042.025.021.066.018.075.06.009.041.059.048.073.062l.068.066.127.139c.443.51.563.695.432 1.362-.019-.026-.047-.102-.052-.081l-.122-.336c-.109-.483.134-.106-.081-.378-.197.364-.052.458-.174.853a.695.695 0 0 1-.285.36l-.4.218c.287-.013.364-.027.546.186.68.796.087.635-.076 1.3l-.04.86c.616.336.024.174.585.576.205-.444-.347-.11.363-.409l.143.713c.083.208.108-.012.174.422-.348.151-.195.174-.647.113.362.134.522.054.603.361.362-.66-.217.65.021-.274.082-.318-.099-.1.158-.383.026.03.06.04.07.094l.173.277c.068.123.061.132.16.347l.205-.422.037-.063.116-.233c.327-.771-.323.282.087-.234a.292.292 0 0 1-.373.14c.097-.416.081-.2.255-.465l.04-.057.137-.174c.157-.113.348-.052.43-.22.165-.317.04-.06-.013-.197-.008-.025-.038-.068-.05-.094l-.143-.212c.563-.063.435.056.631-.163.38-.428-.51.194.207-.49-.337-.273-.478-.013-.377-.305l.123-.173c.016-.025.06-.066.089-.098a1.39 1.39 0 0 1-.817-.135c.028-.035.068-.132.084-.106l.936-.603c-.869-.522.08-.26-.794-.46l.777-.261-.32-.348c.64.1.396.163.624-.297l.259.217.62-.106c1.043 1.217 4.817 1.105 6.812.937 1.243-.105 2.157-.711 3.034-1.005.826-.276 1.78-1.054 2.385-1.673.636-.65 1.776-4.544 2.27-5.848.94-2.464 1.678-3.765 1.619-6.322-.049-2.132-.522-5.234-1.267-6.815-.233-.499-.506-.935-.683-1.345-.365-.845-.26-.582-.81-1.217-1.404-1.609-2.544-2.669-4.91-3.18-1.13-.243-2.178-.47-3.247-.488-1.407-.023-2.259.222-3.362.643-.814.308-1.71 1.39-2.275 1.574v-1.66l-5.56.036v13.665l-.017.033z"/><path fill="#522D2B" d="M41.498 75.297c.597.287 1.25 1.467 1.44 2.2.848 3.264-2.202 5.147-6.106 4.089-2.086-.565-3.092-1.18-4.642-2.511-.194.453-.347.83-.566 1.228-.348.647-1.868 3.177-1.981 3.768.552.224.99.634 1.564.975.253.16.52.3.796.419 2.839 1.103 2.128.924 4.976 1.239 2.352.259 5.26.066 7.442-1.012.538-.266.366-.05.613-.64.55-1.313.608-1.647.926-2.85.27-1.02 2.317-5.921 2.16-6.478l-.806-1.245c-.016-.025-.037-.06-.054-.084l-1.136-1.025c-.852-.773-1.349-.482-1.76-1.237.275-.285.072-.094.42-.275.797-.414 1.108-.737 1.786-1.335.594-.52-.443.485.14-.133.802-.854 1.256-2.8 1.289-3.931a6.864 6.864 0 0 0-.258-2.115 8.447 8.447 0 0 0-.347-.886c-.29-.755-.035-.56-.787-1.512l-1.68-1.564c-2.527-1.36-3.98-1.953-7.473-1.528-1.985.242-5.387 1.034-6.81 2.204 0 .118 1.617 4.236 1.986 4.674.16-.11.71-.52.937-.627.505-.248.25 0 1.112-.506 1.564-.928 6.042-1.492 7.26.522.497.82.869 3.767-1.02 4.507-1.889.74-3.637.348-5.934.45l.083 4.635c2.344-.057 4.487-.337 6.43.59v-.006z"/><path fill="#3C231D" d="M127.551 64.233c.225-.87.19-4.027.174-5.075l-19.289.115c-.313.728-.111 3.912-.144 5.01h6.95l-.24 21.934 1.263-.023c.209-.398.389-.81.538-1.235.147-.406.271-.82.372-1.24.249-.821.683-1.521.939-2.314.173-.533.165-.84.396-1.355.196-.436.29-.673.466-1.16.145-.406.333-.707.458-1.155.433-1.54 1.201-2.801 1.236-3.708.104-2.725-.12-7.457.214-9.758l6.667-.028v-.008z"/><path fill="#FFF" d="M88.462 65.75c0 1.757-.174 13.606-.05 14.213.161.763 1.251 1.159 2.106 1.453 1.018.347 2.285.236 3.317.057 4.586-.794 5.448-4.518 5.464-8.803 0-1.12.028-2.362-.148-3.401-.217-1.284-.566-1.719-.992-2.66-1.2-2.647-5.985-3.27-7.669-2.423-.818.412-1.373.996-2.026 1.564h-.002z"/><path fill="#FE8205" d="M53.577 40.736c.893-.49 1.962-3.301 2.645-4.205l1.306-2.085c.221-.405.013-.021.348-.457l1.017-1.667c1.233-1.543.42-.464 1.37-2.014.253-.41.534-.573.788-.963.393-.603.156-.472.712-1.042.397-.402.358-.485.695-.933.277-.376.532-.476.855-.892 1.476-1.894 1.547-2.78 4.326.254.464.51.582.4.922.695.164.143.4.521.708.782l4.17 3.674c.522.347.3.328.65.816.231.32.471.364 1.107 1.198s.683.64 1.696 2.207l.8.96c.092-2.356-.584-2.495-1.118-3.58a4.494 4.494 0 0 0-.627-1.017c-.468-.583-.869-1.217-1.434-1.677l-3.32-3.167a2.207 2.207 0 0 0-.2-.198l-4.586-4.202c-.376-.936 2.693-3.765 1.489-5.13-.476.174-.386.312-.6.765l-1.783 2.654c-.879.766-1.55-.456-1.576-.522-.318-.827.655-2.933-1.042-2.726-.598.073-.327-.031-.504.26-.145.237-.089 1.142-.084 1.458.038 2.703 2.306 2.748.982 4.16-.895.955-.829 1.097-1.31 1.67a6.376 6.376 0 0 0-.619.744l-2.455 3.464c-.913 1.63-.38.638-1.17 1.802-.27.4-.306.804-1.31 2.207a2.372 2.372 0 0 0-.316.509c-.271.568-.143.426-.562.917-.366.431-2.055 3.712-2.128 4.552-.023.255-.042.099.014.363.064.306.04.198.149.366h-.005z"/><path fill="#232A14" d="M62.804 2.249c2.5.59.522-.152 2.795.955.806.393 2.521 1.957 3.096 2.607.409.46.383.513.91.98.574.511.326.593.835 1.053.51.46.521.495.937 1.095.507.72.9.961 1.256 1.581.103.204.219.401.348.59l1.609 2.17c.15.172.285.355.405.55l10.711 13.61c.089.093.172.19.249.293l1.266 1.564c.948.931.327.361.849 1.055l3.543 4.031.073-2.374c-.685-.467-1.538-1.647-2.28-2.46l-7.31-8.764a4.768 4.768 0 0 1-.486-.458c-.241-.305-.139-.292-.347-.605-.3-.454-.551-.502-.887-.998L71.89 7.203c-.617-.782-.763-1.126-1.345-1.623-.38-.325-.45-.653-.832-1.064l-1.825-1.942C67.11 1.9 66.671 1.435 65.777.89c-1.042-.634-1.449-.93-3-.882l.022 2.248.005-.008zM35.276 44.115c.096-.654.647-2.65.89-3.186.961-2.11.617-1.737 1.912-4.281l1.079-2.032c.049-.085.158-.271.196-.347l.984-1.723c.123-.201.264-.434.347-.594l4.386-7.238c.511-.754 1.106-1.59 1.71-2.47l6.288-8.31c.709-.807 1.77-2.102 2.521-2.75.27-.233.264-.325.475-.608l4.285-4.087c.406-.348.797-.654.851-1.128.026-.233-.05-1.673-.088-1.981-.695.532-1.415 1.29-2.101 1.911-.417.376-.622.678-.977 1.043L56.95 7.415c-.433.49-.681.488-1.019 1.001-.477.725-.667.55-1.058 1.096-.723 1.007-3.373 3.848-3.812 4.578-.522.869-.348.419-.899 1.122l-1.757 2.433c-.325.563-.55.674-.942 1.217l-3.26 4.992c-.749.87-2.865 4.663-3.498 5.827-.448.825-.846 1.263-1.195 2.033-.215.45-.46.883-.735 1.298-.348.521-.464.928-.722 1.439-1.315 2.607-3.268 6.82-2.78 9.662l.003.002z"/><path fill="#FFF" d="M13.989 74.093l3.677-.016c.137-.66-1.592-6.03-1.925-6.963-.216-.603-.245-1.105-.43-1.73l-1.13-3.438c-.175-.685-.166-1.35-.733-1.549-.318.33-2.097 7.061-2.432 8.342L9.87 73.022c-.241 1.144.414 1.081 1.413 1.069.899-.01 1.806 0 2.706 0v.002z"/><path fill="#522D2B" d="M88.29 85.737l-.259-.217c-.227.459.016.395-.624.297l.32.348-.777.26c.87.2-.081-.058.795.461l-.937.603c-.016-.026-.056.071-.084.106a1.4 1.4 0 0 0 .817.136c-.03.033-.073.073-.088.097l-.124.174c-.1.292.04.031.377.304-.717.685.174.062-.206.49-.197.219-.068.1-.631.163l.142.212c.012.025.04.068.05.094.053.137.174-.12.013.196-.089.174-.275.108-.43.221l-.137.174-.04.057c-.173.264-.158.05-.255.466a.292.292 0 0 0 .373-.14c-.41.52.24-.538-.086.234l-.117.233-.036.062-.205.423c-.098-.218-.093-.228-.16-.348l-.174-.276c-.01-.056-.043-.066-.07-.094-.257.283-.076.064-.158.382-.238.925.348-.386-.02.275-.077-.308-.242-.228-.604-.362.452.066.303.038.647-.113-.06-.436-.085-.213-.174-.422l-.142-.712c-.718.298-.157-.033-.364.408-.56-.398.032-.24-.585-.575l.04-.86c.163-.666.756-.504.076-1.3-.174-.214-.259-.2-.545-.186l.4-.22a.695.695 0 0 0 .284-.359c.13-.396-.014-.488.174-.853.217.27-.026-.104.082.379l.121.335c0-.02.033.057.052.082.13-.671.01-.852-.432-1.363l-.127-.139-.068-.066c-.014-.014-.062-.02-.073-.062-.01-.042-.05-.04-.075-.06.478-.309.261-.347.532-1.042l-.365.283-.076.049-.362.236c-.019-.031-.073.052-.107.08a4.84 4.84 0 0 1 .217-.502c.012-.031.028-.066.038-.096l.031-.38c0-.02 0-.06-.012-.08-.057-.339-.153-.65-.436-.666a.412.412 0 0 0-.054.01c-.196.042-.038.727-.22.147 0-.021-.039.043-.063.041a.348.348 0 0 1 0-.095l.144-.654c-.304-.126-.163.197-.417.136.125-.732-.202-.636.299-.945-.257-.364-.233-.576-.068-1.074l.064-.273c0-.03-.312-.907-.225-1.24-.042-.017-.054.032-.05.046.105.26-.015.174.387.315 0-.01-.033-.42-.033-.445v-.125c.02-.29.233-.504.205-.8 0-.02 0-.064-.012-.087-.013-.022-.014-.064-.02-.088-.173-.713-.368-.906-.21-1.787.57.348-.01.124.43.376l.378.173c.217.162.044.41.695.037l-.825-.641c-.163-.046-.457.269-.676-.556-.14-.522-.127-.522-.009-.468.252-.705.01.021.336-.158.42-.23-.016.132.205-.233l.097-.234c-1.279.42-.633-.26-1.164-.975l-.075 23.91h5.463c.042-1.565.306-10.411-.008-11.122l.01-.018z"/><path fill="#FFF" d="M61.25 73.915c2.044.14 4.312.039 6.382.047 1.698 0 1.414-.28 1.075-1.833l-1.355-4.866c-.276-.882-.48-1.511-.747-2.358-.348-1.114-.902-4.047-1.543-4.62-.638 1.06-1.132 3.784-1.491 5.091-.16.584-.365.975-.556 1.597l-.916 3.417c-.317 1.06-.923 2.3-.848 3.52v.005z"/><path fill="#232A14" d="M74.836 49.79l32.458-.036a2.96 2.96 0 0 0 .025-1.632c-.645.182-26.287.13-29.827.136-2.296 0-2.622-.282-2.689.484-.015.193.02.826.033 1.043v.005zm-51.905.005l32.51-.003.035-1.519-32.56.084.015 1.438z"/><path fill="#764937" d="M33.643 101.977c.315-.256.886-.695 1.439-.782.641-.092 1.364.153 1.661.596.193.285.382 1.49.395 1.955.093 3.668-2.748 2.9-3.252 2.408-.394-.385-.266-3.345-.243-4.17v-.007zm.07 5.069c.905.174 1.066.393 1.763.372.75-.023 1.25-.191 1.608-.593 1.962-2.203 1.093-5.474-.125-6.317a.712.712 0 0 0-.374-.161c-1.564-.419-2.459.521-2.86.726-.106-.29-.075-.478-.27-.695h-.695l.096 9.521.893.026-.037-2.88zm-7.681-1.216c-1.342.924-3.036 1.275-3.19-.362-.173-1.785 1.912-1.823 3.167-1.792l.023 2.153zm-1.335-4.693c1.02.124 1.244.511 1.317 1.651-.996.068-2.259.212-2.954.586-.361.195-.756.347-.985.754-.784 1.366-.162 4.12 2.844 3.139.92-.301.452-.152.979-.635.499.668-.188.641 1.042.603.15-.803.046-4.834-.09-5.647-.25-1.498-2.982-1.538-4.483-1.088-.162.347-.085.41-.09.898.668.148 1.31-.396 2.423-.26h-.003z"/><path fill="#FFF" d="M63.477 104.154c.377-3.302-2.377-3.75-3.31-2.46-.402.552-1.194 4.594 1.167 4.96 1.47.227 2.009-1.322 2.145-2.5h-.002z"/><path fill="#764937" d="M63.477 104.154c-.134 1.178-.674 2.727-2.145 2.5-2.36-.366-1.564-4.406-1.167-4.96.935-1.292 3.687-.84 3.31 2.46h.002zm-4.866-.135c.038.492.12.98.245 1.458a2.79 2.79 0 0 0 2.8 2.031c.71-.023 1.442-.214 1.809-.62.643-.711 1.006-1.927.988-3.144-.062-5.142-6.198-4.398-5.835.273l-.007.002zm21.347-.861c-.39-2.201 3.15-3.23 3.572-.682.174 1.06-.568.742-3.572.682zm4.243 2.66c-.6.52-2.01 1.077-3.018.583-.129-.062-.198-.111-.348-.193-.803-.43-1.004-1.33-.947-2.36h4.477c.173-.903-.02-1.66-.322-2.46-.645-1.707-3.357-1.166-3.833-.746-1.371 1.217-1.361 2.235-1.217 4.317.174 2.78 3.361 2.558 5.302 2.042l-.083-1.19-.01.006z"/><path fill="#FFF" d="M33.643 101.977c-.02.83-.151 3.79.243 4.17.504.492 3.345 1.26 3.252-2.408-.013-.464-.202-1.668-.395-1.955-.299-.443-1.022-.695-1.661-.596-.553.08-1.124.521-1.439.782v.007z"/><path fill="#764937" d="M89.004 107.237c2.906.153 1.912-4.124 2.449-6.02l2.417-.045-.017 6.056.818.016.028-6.878-4.2.043c-.042 1.39-.103 2.668-.157 4.021-.027.673-.132 1.316-.49 1.68-.726.74-.974-.232-.848 1.127zm12.416-.772v-2.047c.105-.787-.036-.259.194-.5.728-.45 2.205.01 2.7.42.174.9.278 1.564-.521 1.935-.622.288-1.613.269-2.38.192h.008zm-.905.744c2.303.06 4.496.426 4.81-1.592.48-3.082-2.82-2.33-3.88-2.624l-.035-2.643-.891.085v6.778l-.004-.004zm-52.435-6.704c-.356-.203-.971-.122-1.39-.12h-4.038l-.035.848 2.188.037.133 5.984.99.03-.02-6.04 2.205.04-.031-.777-.002-.002zm24.037 6.785c.057-1.084-.143-5.402.128-6.015l2.145-.052v-.855l-5.488.041-.063.83 2.29.083c.333.663.142 4.838.145 5.94l.845.029h-.002z"/><path fill="#FFF" d="M26.032 105.83l-.023-2.154c-1.253-.031-3.331 0-3.166 1.792.153 1.637 1.847 1.286 3.189.361zm75.388.635c.767.077 1.758.096 2.38-.192.796-.369.695-1.043.521-1.935-.495-.41-1.972-.868-2.7-.42-.23.241-.09-.287-.193.5v2.047h-.007zm-21.462-3.307c3.004.06 3.748.378 3.572-.682-.422-2.548-3.96-1.52-3.572.682z"/><path fill="#764937" d="M51 103h4v1h-4z"/></g></svg>