<svg id="Layer_1" data-name="Layer 1" xmlns="http://www.w3.org/2000/svg" xmlns:xlink="http://www.w3.org/1999/xlink" viewBox="0 0 191.9 48.38"><defs><style>.cls-1,.cls-3,.cls-45{fill:none;}.cls-1,.cls-2{clip-rule:evenodd;}.cls-2,.cls-20,.cls-22{fill:#00b6d3;}.cls-4{fill:#231f20;}.cls-5{fill:#0c5085;}.cls-22,.cls-25,.cls-26,.cls-27,.cls-28,.cls-29,.cls-30,.cls-31,.cls-32,.cls-5{fill-rule:evenodd;}.cls-6{clip-path:url(#clip-path);}.cls-7{fill:#5bcae9;}.cls-8{fill:#08aab5;}.cls-9{fill:#f47427;}.cls-10{fill:#f3712a;}.cls-11{fill:#f79421;}.cls-12{fill:#00a8cb;}.cls-13{fill:#0eacb7;}.cls-14{fill:#068a9f;}.cls-15{fill:#f79a21;}.cls-16{fill:#ffc316;}.cls-17{fill:#f58220;}.cls-18{fill:#f9a11e;}.cls-19{fill:#079cb2;}.cls-21{fill:#0b8ea4;}.cls-23{clip-path:url(#clip-path-2);}.cls-24{clip-path:url(#clip-path-3);}.cls-25{fill:#56c9ec;stroke:#56c9ec;}.cls-25,.cls-26,.cls-27,.cls-28,.cls-29,.cls-30,.cls-31,.cls-32,.cls-45{stroke-miterlimit:10;}.cls-25,.cls-26,.cls-27,.cls-28,.cls-29,.cls-30,.cls-31,.cls-32{stroke-width:0.72px;}.cls-26{fill:#2f9cd7;stroke:#2f9cd7;}.cls-27{fill:#094d7c;stroke:#094d7c;}.cls-28{fill:#35b0e5;stroke:#35b0e5;}.cls-29{fill:#065892;stroke:#065892;}.cls-30{fill:#0a5286;stroke:#0a5286;}.cls-31{fill:#1373ba;stroke:#1373ba;}.cls-32{fill:#42a7dd;stroke:#42a7dd;}.cls-33{clip-path:url(#clip-path-4);}.cls-34{fill:#0d8da9;}.cls-35{fill:#01a7b0;}.cls-36{fill:#317989;}.cls-37{clip-path:url(#clip-path-5);}.cls-38{clip-path:url(#clip-path-6);}.cls-39{fill:#f99f1b;}.cls-40{fill:#f37028;}.cls-41{clip-path:url(#clip-path-7);}.cls-42{fill:#fbb317;}.cls-43{fill:#faa31f;}.cls-44{fill:#f99c1f;}.cls-45{stroke:#00b6d3;stroke-width:2px;}</style><clipPath id="clip-path"><polygon class="cls-1" points="19.11 38.66 29.79 38.66 27.33 18.56 21.34 18.54 19.11 38.66"/></clipPath><clipPath id="clip-path-2"><polygon class="cls-2" points="30.59 17.02 30.59 15.44 18.41 15.44 18.36 17.07 30.59 17.02"/></clipPath><clipPath id="clip-path-3"><path class="cls-1" d="M19,40l-3.34,3.13H32.91l-2.78-3.16Z"/></clipPath><clipPath id="clip-path-4"><path class="cls-1" d="M17.31,46.74c.52,0,1.14-.62,1.78-.61s1.14.63,1.78.63,1.12-.62,1.78-.61,1,.63,1.78.63,1.2-.62,1.78-.61,1,.63,1.78.63,1.35-.62,1.78-.61.94.62,1.78.63,3.4-2.21,3.11-2.68c-.8,0-19.35,0-20.41,0C14.24,44.79,16.79,46.74,17.31,46.74Z"/></clipPath><clipPath id="clip-path-5"><rect class="cls-3" x="22.02" y="8.26" width="4.86" height="4.86" transform="translate(-0.4 20.42) rotate(-45)"/></clipPath><clipPath id="clip-path-6"><path class="cls-1" d="M46.33,29.24C44.93,36.07,36.76,44,36.76,44L32.4,39.4S43.7,33.67,46.33,29.24Z"/></clipPath><clipPath id="clip-path-7"><path class="cls-1" d="M2.53,29C3.93,35.84,12.1,43.8,12.1,43.8l4.36-4.61S5.16,33.45,2.53,29Z"/></clipPath></defs><title>logo_ucwt</title><path class="cls-4" d="M69.34,15.63v1.69H65.75v1.83h3.35v1.69H65.75V22.9h3.69v1.75H63.81v-9Z"/><path class="cls-4" d="M70.4,23h.31a.9.9,0,0,0,.75-.29,2.16,2.16,0,0,0,.28-1l.71-6.12h5.88V23h1v2.91H77.56V24.66H72.21v1.28H70.4Zm3.73-5.72-.48,4.54A1.58,1.58,0,0,1,73,23.06h3.39V17.3Z"/><path class="cls-4" d="M86.51,19.5l-5.1,5.18h-.58v-9h1.93v5.12l5.07-5.16h.61v9.06H86.51Z"/><path class="cls-4" d="M97.83,24.66H95.89V20.84H92.44v3.82H90.52v-9h1.92v3.44h3.46V15.63h1.93Z"/><path class="cls-4" d="M101.8,15.63v2.82h1.93a3,3,0,0,1,2.49,1.06,3.11,3.11,0,0,1,.7,2.44,3,3,0,0,1-1,1.93,3.13,3.13,0,0,1-2.2.77H99.92v-9Zm1.93,4.52H101.8V23h1.61q1.53,0,1.66-1.24a1.47,1.47,0,0,0-.31-1.1A1.25,1.25,0,0,0,103.73,20.16Zm6.43-4.52v9h-1.92v-9Z"/><path class="cls-4" d="M112.25,24.68v-9h1.93v5.12l5.07-5.16h.61v9.06h-1.92V19.5l-5.1,5.18Zm2.56-10.22a2.6,2.6,0,0,0,3.27,0,2.35,2.35,0,0,0,.65-1.59q-.81-.09-1.29-.12a.91.91,0,0,1-1,.81.86.86,0,0,1-1-.81l-1.3.12A2.27,2.27,0,0,0,114.81,14.46Z"/><path class="cls-4" d="M131.6,24.66h-6.5v-9H127V22.9h3.25V15.63h1.95V23h1.08v2.8H131.6Z"/><path class="cls-4" d="M140.34,15.63v1.69h-3.58v1.83h3.35v1.69h-3.35V22.9h3.69v1.75h-5.63v-9Z"/><path class="cls-4" d="M149.5,24.66h-1.93V20.84h-3.46v3.82h-1.92v-9h1.92v3.44h3.46V15.63h1.93Z"/><path class="cls-4" d="M153.18,17.31h-2.41V15.63h6.68v1.68h-2.4v7.35h-1.87Z"/><path class="cls-4" d="M160.67,24.65h-1.93v-9h3.85a3,3,0,0,1,2.35,1,3.38,3.38,0,0,1,.86,2.32,3.19,3.19,0,0,1-.86,2.26,3,3,0,0,1-2.35.93h-1.92Zm0-4.2h2a1.22,1.22,0,0,0,1-.46,1.7,1.7,0,0,0,.38-1.13,1.66,1.66,0,0,0-.37-1.1,1.23,1.23,0,0,0-1-.44h-2Z"/><path class="cls-4" d="M70.49,33.78a2,2,0,0,1-.24,1,1.79,1.79,0,0,1-.66.71,2,2,0,0,1,1.29,2,2.56,2.56,0,0,1-.76,1.94,2.91,2.91,0,0,1-2.1.73H63.82v-9h3.83a2.93,2.93,0,0,1,2,.72A2.51,2.51,0,0,1,70.49,33.78Zm-3-1H65.74v2h1.77a1.13,1.13,0,0,0,.78-.26.94.94,0,0,0,.3-.71,1,1,0,0,0-.28-.79A1.08,1.08,0,0,0,67.51,32.77Zm.28,3.62h-2v2.06h2.14a1.09,1.09,0,0,0,.77-.26,1,1,0,0,0,.31-.73,1,1,0,0,0-.4-.89A1.36,1.36,0,0,0,67.79,36.39Z"/><path class="cls-4" d="M81.19,35.62A4.58,4.58,0,0,1,79.9,39a4.49,4.49,0,0,1-3.34,1.3A4.6,4.6,0,0,1,73.3,39,4.45,4.45,0,0,1,72,35.62a4.76,4.76,0,0,1,.66-2.54,4.16,4.16,0,0,1,1.7-1.6A5,5,0,0,1,76.6,31a4.8,4.8,0,0,1,3.18,1.19,3.94,3.94,0,0,1,1,1.47A5.1,5.1,0,0,1,81.19,35.62Zm-7.27,0a2.88,2.88,0,0,0,.76,2.15,2.61,2.61,0,0,0,1.91.75,2.64,2.64,0,0,0,1.91-.75,2.86,2.86,0,0,0,.77-2.15,2.83,2.83,0,0,0-.77-2.12,2.77,2.77,0,0,0-3.8,0A2.83,2.83,0,0,0,73.91,35.62Z"/><path class="cls-4" d="M81.83,38.49h.31a.9.9,0,0,0,.75-.29,2.16,2.16,0,0,0,.28-1l.71-6.12h5.88v7.39h1V41.4H89V40.13H83.65V41.4H81.83Zm3.73-5.72-.48,4.54a1.58,1.58,0,0,1-.61,1.22h3.39V32.77Z"/><path class="cls-4" d="M99.57,40.13H97.63V36.31H94.18v3.82H92.26v-9h1.92v3.44h3.46V31.1h1.93Z"/><path class="cls-4" d="M110.37,35.62A4.58,4.58,0,0,1,109.08,39a4.49,4.49,0,0,1-3.34,1.3A4.6,4.6,0,0,1,102.49,39a4.45,4.45,0,0,1-1.33-3.42,4.76,4.76,0,0,1,.66-2.54,4.16,4.16,0,0,1,1.7-1.6,5,5,0,0,1,2.26-.52A4.8,4.8,0,0,1,109,32.15a3.94,3.94,0,0,1,1,1.47A5.1,5.1,0,0,1,110.37,35.62Zm-7.27,0a2.88,2.88,0,0,0,.76,2.15,2.61,2.61,0,0,0,1.91.75,2.64,2.64,0,0,0,1.91-.75,2.86,2.86,0,0,0,.77-2.15,2.83,2.83,0,0,0-.77-2.12,2.77,2.77,0,0,0-3.8,0A2.83,2.83,0,0,0,103.1,35.62Z"/><path class="cls-4" d="M117.45,32.84h-3.57v7.28H112v-9h5.49Z"/><path class="cls-4" d="M127.23,35.62A4.58,4.58,0,0,1,125.95,39a4.49,4.49,0,0,1-3.34,1.3A4.6,4.6,0,0,1,119.35,39,4.45,4.45,0,0,1,118,35.62a4.76,4.76,0,0,1,.66-2.54,4.16,4.16,0,0,1,1.7-1.6,5,5,0,0,1,2.26-.52,4.8,4.8,0,0,1,3.18,1.19,4,4,0,0,1,1,1.47A5.09,5.09,0,0,1,127.23,35.62Zm-7.27,0a2.88,2.88,0,0,0,.76,2.15,2.81,2.81,0,0,0,3.82,0,2.86,2.86,0,0,0,.77-2.15,2.83,2.83,0,0,0-.77-2.12,2.77,2.77,0,0,0-3.8,0A2.83,2.83,0,0,0,120,35.62Z"/><path class="cls-4" d="M133.58,32.78h-2.41V31.1h6.68v1.68h-2.4v7.35h-1.87Z"/><path class="cls-4" d="M141,37.86l.39-.81-3.18-5.7V31.1h2.13l2.05,4h.06l1.83-4h2v.19l-3.4,6.88a7.17,7.17,0,0,1-.67,1.2,3,3,0,0,1-.81.77,1.93,1.93,0,0,1-1.11.29,4.52,4.52,0,0,1-1.46-.32l.26-1.57a1.52,1.52,0,0,0,1.11.14A1.42,1.42,0,0,0,141,37.86Z"/><path class="cls-4" d="M149.26,40.11h-1.93v-9h3.85a3,3,0,0,1,2.35,1,3.38,3.38,0,0,1,.86,2.32,3.19,3.19,0,0,1-.86,2.26,3,3,0,0,1-2.35.93h-1.92Zm0-4.2h2a1.22,1.22,0,0,0,1-.46,1.7,1.7,0,0,0,.38-1.13,1.65,1.65,0,0,0-.37-1.1,1.23,1.23,0,0,0-1-.44h-2Z"/><path class="cls-4" d="M161.45,35l-5.11,5.18h-.58v-9h1.93v5.12l5.07-5.16h.61v9.06h-1.92Z"/><path class="cls-4" d="M166.86,33.32h-1.7a2,2,0,0,1,.79-1.79,3.5,3.5,0,0,1,2.11-.61,3.16,3.16,0,0,1,2.18.72,2.34,2.34,0,0,1,.81,1.83,1.92,1.92,0,0,1-.28,1,2.12,2.12,0,0,1-.75.75,2.36,2.36,0,0,1,1.52,2.28,2.51,2.51,0,0,1-.92,2,3.88,3.88,0,0,1-2.56.77,3.48,3.48,0,0,1-2.37-.77,2.84,2.84,0,0,1-.88-2.26h1.74a1.33,1.33,0,0,0,.43,1,1.55,1.55,0,0,0,1.08.39,1.63,1.63,0,0,0,1.12-.37,1.2,1.2,0,0,0,.42-.95,1.16,1.16,0,0,0-.43-.92,1.64,1.64,0,0,0-1.1-.37h-.67V34.56H168a1.24,1.24,0,0,0,.86-.3,1,1,0,0,0,0-1.51,1.29,1.29,0,0,0-.84-.28,1.54,1.54,0,0,0-.84.23A.72.72,0,0,0,166.86,33.32Z"/><path class="cls-4" d="M177.45,35.37l3.62-4.29h.7v9h-1.93V35.24l-2.27,2.84h-.25L175,35.24v4.89h-1.93v-9h.71Z"/><path class="cls-4" d="M189.19,38.63h-3.75l-.7,1.5h-2v-.26L186.88,31h.89l4.13,8.84v.26h-2ZM187.32,34l-1.25,3h2.5Z"/><path class="cls-5" d="M14.41,44.1s1.89,4.26,10,4.28,10.08-4.14,10.08-4.14Z"/><g class="cls-6"><polygon class="cls-7" points="16.12 25.14 26.69 17.87 1.75 17.23 16.12 25.14"/><polygon class="cls-8" points="23.96 29.26 26.69 17.87 16.12 25.14 23.96 29.26"/><polygon class="cls-9" points="25.01 36.96 30.7 40.22 23.96 29.26 25.01 36.96"/><polygon class="cls-10" points="36.26 37.08 39.5 35.25 26.69 17.87 23.96 29.26 36.26 37.08"/><polygon class="cls-11" points="23.96 29.26 30.7 40.22 36.26 37.08 23.96 29.26"/><polygon class="cls-11" points="37.11 22.59 26.69 17.87 39.5 35.25 37.11 22.59"/><polygon class="cls-12" points="16.12 25.14 9.68 21.76 10.78 28.82 16.12 25.14"/><polygon class="cls-13" points="9.68 21.76 4.95 21.12 9.99 29.36 10.78 28.82 9.68 21.76"/><polygon class="cls-14" points="3.01 20.86 4.56 26.39 9.99 29.36 4.95 21.12 3.01 20.86"/><polygon class="cls-15" points="25.01 36.96 23.96 29.26 18.56 33.27 25.01 36.96"/><polygon class="cls-16" points="26.87 17.87 37.28 22.59 35.37 12.5 32.36 6.72 26.87 17.87"/><polygon class="cls-17" points="41.68 24.59 35.37 12.5 37.28 22.59 41.68 24.59"/><polygon class="cls-18" points="39.68 35.25 45.63 32.17 41.68 24.59 37.28 22.59 39.68 35.25"/><polygon class="cls-12" points="9.99 29.36 12.15 38.03 18.56 33.27 10.78 28.82 9.99 29.36"/><polygon class="cls-19" points="17.4 40.23 24.91 39.89 11.58 37.59 17.4 40.23"/><polygon class="cls-20" points="9.42 28.93 4 25.95 11.58 37.59 9.42 28.93"/><polygon class="cls-21" points="23.96 29.26 16.12 25.14 18.56 33.27 23.96 29.26"/><polygon class="cls-20" points="18.56 33.27 16.12 25.14 10.78 28.82 18.56 33.27"/><polygon class="cls-20" points="12.89 38.38 27.58 40.72 18.01 32.41 12.89 38.38"/><polygon class="cls-8" points="26.09 40.09 28.57 38.94 18.56 33.27 26.09 40.09"/></g><polygon class="cls-22" points="30.59 17.02 30.59 15.44 18.41 15.44 18.36 17.07 30.59 17.02"/><g class="cls-23"><polygon class="cls-22" points="-9.1 18.11 -8.96 20.54 66.09 14.6 -9.1 18.11"/><polygon class="cls-22" points="-14.32 14.9 -8.99 18.11 66.2 14.6 -14.32 14.9"/></g><g class="cls-24"><polygon class="cls-25" points="25.95 48.96 49.38 48.66 37.69 43.4 25.95 48.96"/><polygon class="cls-26" points="22.54 46.19 45.96 45.88 42.55 39.44 22.54 46.19"/><polygon class="cls-27" points="-0.89 46.49 19.93 46.22 12.22 37.67 -0.89 46.49"/><polygon class="cls-28" points="25.95 48.96 37.69 43.4 22.54 42.52 25.95 48.96"/><polygon class="cls-29" points="19.93 46.22 22.54 46.19 23.56 36.44 19.93 46.22"/><polygon class="cls-30" points="12.22 37.67 19.93 46.22 23.56 36.44 12.22 37.67"/><polygon class="cls-31" points="22.54 46.19 42.55 39.44 23.56 36.44 22.54 46.19"/><polygon class="cls-32" points="22.54 42.52 37.69 43.4 41.36 35.79 22.54 42.52"/></g><g class="cls-33"><polygon class="cls-7" points="18.78 42.92 22.22 56.04 25.01 38.65 18.78 42.92"/><polygon class="cls-8" points="11.2 48.12 22.22 56.04 18.78 42.92 11.2 48.12"/><polygon class="cls-34" points="29.13 49.41 27.98 37.89 24.95 38.65 29.13 49.41"/><polygon class="cls-35" points="22.22 56.04 29.07 49.22 29.07 49.22 25.01 38.65 22.22 56.04"/><polygon class="cls-12" points="18.78 42.92 25.01 38.65 17.05 36.3 18.78 42.92"/><polygon class="cls-36" points="29.21 49.2 35.19 51.91 35.19 43.25 29.21 49.2 29.21 49.2"/><polygon class="cls-12" points="29.14 49.73 29.18 49.68 35.8 43.52 35.8 36.06 27.95 37.96 29.14 49.73"/><polygon class="cls-21" points="11.2 48.12 18.78 42.92 9.13 41.28 11.2 48.12"/><polygon class="cls-20" points="9.13 41.28 18.78 42.92 17.05 36.3 9.13 41.28"/></g><g class="cls-37"><polygon class="cls-8" points="25.11 10.69 14.09 2.77 17.53 15.88 25.11 10.69"/><polygon class="cls-9" points="33.75 13.4 39.55 9.76 25.11 10.69 33.75 13.4"/><polygon class="cls-10" points="38.47 3.19 37.84 -0.64 14.09 2.77 25.11 10.69 38.47 3.19"/><polygon class="cls-11" points="25.11 10.69 39.55 9.76 38.47 3.19 25.11 10.69"/><polygon class="cls-15" points="33.75 13.4 25.11 10.69 27.18 17.53 33.75 13.4"/><polygon class="cls-12" points="19.52 23.49 29.64 25.65 27.18 17.53 19.27 22.51 19.52 23.49"/><polygon class="cls-19" points="34.83 21.59 37.53 14.58 29.64 25.65 34.83 21.59"/><polygon class="cls-20" points="19.52 23.49 14.14 27.03 29.64 25.65 19.52 23.49"/><polygon class="cls-21" points="25.11 10.69 17.53 15.88 27.18 17.53 25.11 10.69"/><polygon class="cls-20" points="27.18 17.53 17.53 15.88 19.27 22.51 27.18 17.53"/><polygon class="cls-20" points="29.64 25.65 37.53 14.58 27.18 17.53 29.64 25.65"/><polygon class="cls-8" points="37.53 14.58 33.75 13.4 27.18 17.53 37.53 14.58"/></g><path class="cls-10" d="M41.85,30.73s2,1.72,2.7,2.22c.93-.51,2.27-5.3,2.27-5.3Z"/><g class="cls-38"><polygon class="cls-10" points="16.78 35.96 17.79 42.13 56.07 36.63 38.31 23.87 16.78 35.96"/><polygon class="cls-11" points="41.11 48.32 56.07 36.63 17.79 42.13 41.11 48.32"/><polygon class="cls-16" points="56.07 36.63 41.11 48.32 59.7 53.27 71.6 53.27 56.07 36.63"/><polygon class="cls-39" points="56.07 36.63 71.6 53.27 76.74 53.27 76.74 50.74 72.57 39.87 56.07 36.63"/><polygon class="cls-17" points="34.79 53.27 59.7 53.27 41.11 48.32 34.79 53.27"/><polygon class="cls-18" points="17.79 42.13 19.17 53.27 34.79 53.27 41.11 48.32 17.79 42.13"/></g><path class="cls-40" d="M7.23,31l-2.7,2.22c-1.62-1.73-2.27-5.3-2.27-5.3Z"/><g class="cls-41"><polygon class="cls-10" points="5.74 33.47 17.75 33.47 16.73 27.29 5.74 33.47"/><polygon class="cls-15" points="14.99 16.71 3.69 31.42 5.74 33.47 16.73 27.29 14.99 16.71"/><path class="cls-40" d="M4.49,43.53c6.61-5,13.25-10.06,13.25-10.06h-12Z"/><polygon class="cls-42" points="-9.77 17.96 3.69 31.42 14.99 16.71 -9.77 17.96"/><path class="cls-17" d="M4.49,43.53,4.36,44.6H19.12L17.75,33.47S11.1,38.55,4.49,43.53Z"/><path class="cls-43" d="M5.74,33.47l-2-2L-6.43,44.6H3.06l1.43-1.07Z"/><path class="cls-17" d="M3.06,44.6H4.36l.13-1.07Z"/><polygon class="cls-44" points="3.69 31.42 -9.77 17.96 -6.43 44.6 3.69 31.42"/></g><path class="cls-45" d="M46.9,24.66a22.24,22.24,0,0,0-44.48,0"/></svg>